<?xml version="1.0" encoding="iso-8859-1"?>
<!-- Generator: Adobe Illustrator 19.0.0, SVG Export Plug-In . SVG Version: 6.00 Build 0)  -->
<svg version="1.1" id="Capa_1" xmlns="http://www.w3.org/2000/svg" xmlns:xlink="http://www.w3.org/1999/xlink" x="0px" y="0px"
	 viewBox="0 0 512.001 512.001" style="enable-background:new 0 0 512.001 512.001;" xml:space="preserve">
<g>
	<g>
		<path d="M368.388,108.252c-1.86-1.861-4.43-2.931-7.071-2.931c-2.63,0-5.211,1.071-7.071,2.931c-1.86,1.859-2.93,4.439-2.93,7.07
			c0,2.64,1.07,5.21,2.93,7.071c1.86,1.87,4.44,2.93,7.071,2.93c2.639,0,5.21-1.06,7.071-2.93c1.87-1.86,2.93-4.429,2.93-7.071
			C371.318,112.691,370.258,110.111,368.388,108.252z"/>
	</g>
</g>
<g>
	<g>
		<path d="M246.188,32.165c-5.523,0-10.001,4.478-10.001,10.001c0,5.522,4.477,10.001,10.001,10.001h0.081
			c5.523,0,9.96-4.478,9.96-10.001C256.229,36.644,251.711,32.165,246.188,32.165z"/>
	</g>
</g>
<g>
	<g>
		<path d="M285.179,32.165c-5.523,0-10.001,4.478-10.001,10.001c0,5.522,4.477,10.001,10.001,10.001h0.08
			c5.523,0,9.961-4.478,9.961-10.001C295.22,36.644,290.703,32.165,285.179,32.165z"/>
	</g>
</g>
<g>
	<g>
		<path d="M324.17,32.165c-5.523,0-10.001,4.478-10.001,10.001c0,5.522,4.477,10.001,10.001,10.001h0.08
			c5.523,0,9.961-4.478,9.961-10.001C334.211,36.644,329.693,32.165,324.17,32.165z"/>
	</g>
</g>
<g>
	<g>
		<path d="M467.17,32.164h-86.182c-5.523,0-10.001,4.478-10.001,10.001c0,5.522,4.477,10.001,10.001,10.001h86.182
			c5.523,0,10.001-4.478,10.001-10.001C477.171,36.643,472.693,32.164,467.17,32.164z"/>
	</g>
</g>
<g>
	<g>
		<path d="M315.112,248.955c-1.87-1.86-4.44-2.93-7.071-2.93c-2.64,0-5.21,1.069-7.081,2.93c-1.86,1.86-2.93,4.44-2.93,7.071
			c0,2.63,1.07,5.21,2.93,7.07c1.87,1.86,4.44,2.931,7.081,2.931c2.63-0.001,5.2-1.071,7.071-2.931c1.86-1.859,2.93-4.439,2.93-7.07
			C318.042,253.395,316.972,250.815,315.112,248.955z"/>
	</g>
</g>
<g>
	<g>
		<path d="M485.487,0.001H227.908c-14.619,0-26.512,11.894-26.512,26.512v212.999c0,14.618,11.894,26.512,26.512,26.512h35.941
			c5.523,0,10.001-4.478,10.001-10.001s-4.477-10.001-10.001-10.001h-35.941c-3.59,0-6.511-2.92-6.511-6.511V84.33h270.601v155.183
			c0,3.59-2.92,6.511-6.511,6.511H349.446c-5.524,0-10.001,4.478-10.001,10.001s4.477,10.001,10.001,10.001h136.042
			c14.619,0,26.512-11.894,26.512-26.512V26.514C512,11.895,500.107,0.001,485.487,0.001z M491.998,64.329H221.397v-0.001V26.514
			c0-3.59,2.92-6.511,6.511-6.511h257.58c3.59,0,6.511,2.92,6.511,6.511V64.329z"/>
	</g>
</g>
<g>
	<g>
		<path d="M113.124,407.878c-1.86-1.86-4.44-2.93-7.071-2.93s-5.21,1.069-7.071,2.93c-1.86,1.86-2.93,4.44-2.93,7.071
			c0,2.63,1.07,5.21,2.93,7.07c1.86,1.87,4.44,2.931,7.071,2.931s5.21-1.061,7.071-2.931c1.86-1.859,2.93-4.43,2.93-7.07
			C116.054,412.318,114.984,409.738,113.124,407.878z"/>
	</g>
</g>
<g>
	<g>
		<path d="M311.295,415.936l-52.696-52.692c-15.123-15.121-39.73-15.123-54.853,0.001l-3.433,3.434
			c-4.768,4.77-12.528,4.769-17.297,0l-37.692-37.692c-2.31-2.31-3.582-5.381-3.582-8.648s1.272-6.338,3.583-8.648l3.433-3.434
			c15.123-15.123,15.123-39.73,0-54.853l-52.695-52.695c-15.122-15.122-39.73-15.122-54.852,0l-12.609,12.608
			c-38.136,38.137-38.136,100.19,0,138.326l39.375,39.376c3.905,3.904,10.238,3.904,14.144,0c3.905-3.905,3.905-10.238,0-14.144
			L42.747,337.5c-27.379-27.378-30.04-70.249-8.001-100.651l49.023,49.022c1.953,1.952,4.512,2.929,7.072,2.929
			c2.559,0,5.119-0.977,7.072-2.929c3.905-3.905,3.905-10.238,0-14.144l-49.716-49.715l7.16-7.16c7.324-7.325,19.241-7.325,26.565,0
			l52.694,52.694c7.325,7.324,7.325,19.241,0,26.565l-3.433,3.434c-6.088,6.088-9.441,14.182-9.441,22.791s3.352,16.703,9.44,22.792
			l37.692,37.692c12.568,12.566,33.016,12.566,45.584-0.001l3.434-3.434c7.324-7.325,19.241-7.325,26.565,0l52.695,52.694
			c3.547,3.548,5.502,8.266,5.502,13.282c0,5.016-1.954,9.734-5.503,13.282l-7.16,7.16l-47.961-47.961
			c-3.905-3.904-10.238-3.904-14.144,0c-3.905,3.905-3.905,10.238,0,14.144l47.268,47.268
			c-30.403,22.039-73.273,19.378-100.651-8.002l-36.208-36.208c-3.905-3.903-10.238-3.904-14.143,0
			c-3.905,3.905-3.906,10.238,0,14.144l36.208,36.208c19.068,19.068,44.116,28.603,69.163,28.603s50.096-9.534,69.164-28.603
			l12.607-12.608c7.327-7.326,11.361-17.065,11.361-27.426S318.62,423.261,311.295,415.936z"/>
	</g>
</g>
<g>
	<g>
		<path d="M385.068,206.02h-13.747v-55.505c0-5.523-4.477-10.001-10.001-10.001h-15.217c-5.523,0-10.001,4.478-10.001,10.001
			c0,5.522,4.477,10.001,10.001,10.001h5.216v45.504h-13.748c-5.524,0-10.001,4.478-10.001,10.001s4.477,10.001,10.001,10.001
			h23.749h23.748c5.523,0,10.001-4.478,10.001-10.001S390.592,206.02,385.068,206.02z"/>
	</g>
</g>
<g>
	<g>
		<path d="M401.49,438.041h-10.001c-5.523,0-10.001,4.478-10.001,10.001c0,5.522,4.477,10.001,10.001,10.001h10.001
			c5.523,0,10.001-4.478,10.001-10.001C411.491,442.519,407.013,438.041,401.49,438.041z"/>
	</g>
</g>
<g>
	<g>
		<path d="M447.994,434.54c-3.073,0-5.822,1.386-7.657,3.566c-4.978,0.573-8.845,4.802-8.845,9.935
			c0,5.522,4.477,10.001,10.001,10.001h6.501c5.523,0,10.001-4.478,10.001-10.001v-3.5
			C457.995,439.019,453.518,434.54,447.994,434.54z"/>
	</g>
</g>
<g>
	<g>
		<path d="M447.994,284.527c-5.523,0-10.001,4.478-10.001,10.001v10.001c0,5.523,4.477,10.001,10.001,10.001
			s10.001-4.478,10.001-10.001v-10.001C457.995,289.005,453.518,284.527,447.994,284.527z"/>
	</g>
</g>
<g>
	<g>
		<path d="M447.994,334.531c-5.523,0-10.001,4.478-10.001,10.001v10.001c0,5.523,4.477,10.001,10.001,10.001
			s10.001-4.478,10.001-10.001v-10.001C457.995,339.01,453.518,334.531,447.994,334.531z"/>
	</g>
</g>
<g>
	<g>
		<path d="M447.994,384.536c-5.523,0-10.001,4.478-10.001,10.001v10.001c0,5.522,4.477,10.001,10.001,10.001
			s10.001-4.478,10.001-10.001v-10.001C457.995,389.014,453.518,384.536,447.994,384.536z"/>
	</g>
</g>
<g>
	<g>
		<path d="M123.965,54.006h-10.001c-5.523,0-10.001,4.478-10.001,10.001c0,5.523,4.478,10.001,10.001,10.001h10.001
			c5.523,0,10.001-4.478,10.001-10.001C133.966,58.485,129.488,54.006,123.965,54.006z"/>
	</g>
</g>
<g>
	<g>
		<path d="M173.969,54.006h-10.001c-5.523,0-10.001,4.478-10.001,10.001c0,5.523,4.478,10.001,10.001,10.001h10.001
			c5.523,0,10.001-4.478,10.001-10.001C183.97,58.485,179.493,54.006,173.969,54.006z"/>
	</g>
</g>
<g>
	<g>
		<path d="M63.959,94.01c-5.523,0-10.001,4.478-10.001,10.001v10.001c0,5.523,4.478,10.001,10.001,10.001
			c5.523,0,10.001-4.478,10.001-10.001v-10.001C73.96,98.488,69.483,94.01,63.959,94.01z"/>
	</g>
</g>
<g>
	<g>
		<path d="M63.959,144.014c-5.523,0-10.001,4.478-10.001,10.001v10.001c0,5.523,4.478,10.001,10.001,10.001
			c5.523,0,10.001-4.478,10.001-10.001v-10.001C73.96,148.493,69.483,144.014,63.959,144.014z"/>
	</g>
</g>
<g>
	<g>
		<path d="M73.96,54.006H63.959c-5.523,0-10.001,4.478-10.001,10.001c0,5.523,4.478,10.001,10.001,10.001H73.96
			c5.523,0,10.001-4.478,10.001-10.001C83.961,58.485,79.484,54.006,73.96,54.006z"/>
	</g>
</g>
<g>
</g>
<g>
</g>
<g>
</g>
<g>
</g>
<g>
</g>
<g>
</g>
<g>
</g>
<g>
</g>
<g>
</g>
<g>
</g>
<g>
</g>
<g>
</g>
<g>
</g>
<g>
</g>
<g>
</g>
</svg>
